<?xml version="1.0" encoding="UTF-8"?>
<svg id="Layer_1" xmlns="http://www.w3.org/2000/svg" version="1.1" viewBox="0 0 738.8 155.9">
  <!-- Generator: Adobe Illustrator 29.0.0, SVG Export Plug-In . SVG Version: 2.1.0 Build 186)  -->
  <defs>
    <style>
      .st0, .st1 {
        fill: #1075fd;
      }

      .st1 {
        fill-rule: evenodd;
      }
    </style>
  </defs>
  <g id="Layer_2-2">
    <path class="st1" d="M197.9,66.4h15.6l-.9,6.6h.8c3-5.1,9.4-7.7,19-7.7s9.4.7,12.4,2.1c3,1.5,5.3,4,6.5,7.1,1.6-3.1,4.2-5.6,7.4-7.1,3.2-1.4,7.5-2.1,13-2.1,3.7,0,7.5.3,11.1,1.3,2.6.7,4.9,2.2,6.6,4.3,1.6,1.9,2.6,4.3,2.9,6.8.1,1.6.1,3.2,0,4.8-.1,2-.4,4.5-.7,7.5l-2.7,20.7h-16.6l2.7-20.7c.4-2.3.5-4.5.5-6.8s-.4-2.2-1.1-3c-1.4-1.6-4.4-2.4-9-2.4s-8.2.9-10.2,2.8c-1.1,1.1-2,2.5-2.5,4-.3,1-.6,2.1-.8,3.2-.2,1.3-.5,2.9-.7,4.7l-2.4,18.3h-16.7l2.8-20.7c.4-2.3.6-4.5.6-6.8s-.3-2.2-1-3c-1.3-1.6-4.2-2.4-8.9-2.4s-8.5.9-10.5,2.7c-1.1,1.1-2,2.5-2.5,4-.3,1-.6,2-.8,3.1-.3,1.4-.5,3-.8,4.9l-2.4,18.3h-16.6l5.9-44.5Z"/>
    <path class="st1" d="M337,65.3c5.7,0,11.3.2,16.9.9,3,.3,5.8,1.4,8.3,3.1,1.9,1.6,3.2,3.8,3.6,6.3.5,2.6.3,6.6-.4,12.1-.6,4.4-1.1,7.5-1.5,9.3-.5,1.9-1.2,3.7-2,5.5-2.1,4.1-5.7,6.7-10.7,7.9-2.7.5-5.4.9-8.1,1-3.4.2-7.4.4-12.1.4-8.4,0-14.3-.3-17.7-.9-2.9-.3-5.7-1.5-7.9-3.4-1.9-1.8-3-4.2-3.2-6.7-.4-2.8-.1-7.4.7-13.7.3-2.8.8-5.6,1.5-8.3.5-1.9,1.3-3.6,2.4-5.3,2.2-3.3,5.5-5.6,9.3-6.5,2.8-.6,5.6-1,8.4-1.3,3.4-.3,7.6-.4,12.5-.4ZM335.5,77.7c-5.5,0-9.2.4-11.2,1.3-1.5.6-2.7,1.8-3.4,3.2-.9,2.1-1.5,4.4-1.7,6.7-.4,2-.4,4.1-.1,6.2.4,1.3,1.3,2.3,2.5,2.9,2,1,5.7,1.5,11.1,1.5s10.3-.7,12.3-2,3.2-4.3,3.8-9c.4-2.1.4-4.3,0-6.4-.3-1.3-1.3-2.4-2.6-2.9-2.1-1-5.6-1.5-10.7-1.5h0Z"/>
    <path class="st1" d="M381.8,48.2h16.6l-3.2,24h.7c1.8-2.5,4.2-4.4,7.1-5.5,2.7-1,6.9-1.5,12.4-1.5,4.3,0,8.6.2,12.9.9,2.7.4,5.3,1.5,7.5,3.2,1.9,1.6,3.2,3.9,3.6,6.4.5,2.7.3,6.9-.5,12.7-.5,3.9-1,6.7-1.4,8.6s-1.1,3.7-2,5.4c-1.7,3.4-4.7,6.1-8.4,7.3-2.3.8-4.8,1.3-7.2,1.6-3.4.4-6.8.6-10.2.6-7.7,0-12.9-.9-15.6-2.7-1.4-1.1-2.6-2.6-3.3-4.3h-.8l-.7,5.8h-15.7l8.2-62.5ZM409.2,77.7c-5.6,0-9.5.5-11.7,1.5-1.3.6-2.4,1.7-2.9,3.1-.9,2.1-1.4,4.2-1.6,6.4-.4,2.2-.4,4.4-.1,6.6.4,1.4,1.6,2.5,3,2.8,2.1.8,5.7,1.2,10.7,1.2s9.7-.7,11.9-1.8c1.2-.7,2-1.8,2.4-3.1.8-2,1.3-4.1,1.5-6.2.4-2.9.4-5,0-6.3-.3-1.3-1.3-2.4-2.6-2.8-2-.9-5.6-1.4-10.6-1.4Z"/>
    <path class="st1" d="M453.1,66.4h16.6l-5.8,44.3h-16.6l5.8-44.3ZM455.5,48.2h16.6l-1.6,12.5h-16.6l1.6-12.5Z"/>
    <polygon class="st1" points="484.4 48.2 501 48.2 492.7 110.7 476.1 110.7 484.4 48.2"/>
    <path class="st1" d="M574.5,48.2l-8.2,62.4h-15.7l.8-5.8h-.9c-1.1,1.8-2.6,3.2-4.5,4.3-2,1-4.2,1.7-6.4,2-3.2.5-6.4.7-9.6.7-4.6,0-9.2-.3-13.7-1.1-2.7-.4-5.2-1.7-7.1-3.6-1.7-1.8-2.8-4.2-3-6.7-.3-4.1-.1-8.2.6-12.2.3-3.1.9-6.2,1.7-9.2.6-2.2,1.6-4.2,2.8-6.1,2.4-3.4,5.9-5.8,10-6.6,3.4-.8,8.4-1.2,15-1.2s10,.4,12.4,1.3c2.5,1.1,4.4,3.1,5.4,5.7h.7l3.2-24h16.5ZM540,77.7c-6.4,0-10.7.6-12.7,1.9s-3.3,4.1-3.9,8.5c-.4,2.3-.5,4.7,0,7.1.4,1.4,1.4,2.5,2.7,3,1.9.8,5.4,1.2,10.2,1.2s10.3-.7,12.5-2c1.2-.6,2.1-1.7,2.5-2.9.7-1.9,1.2-3.9,1.4-5.9.4-2.2.4-4.4,0-6.6-.3-1.3-1.3-2.4-2.5-3-1.9-.9-5.3-1.3-10.1-1.3Z"/>
    <path class="st1" d="M622.5,96.6h16.5c-1.1,4.7-3,8.2-5.8,10.3-2.8,2-6.1,3.4-9.5,3.8-4,.8-9.9,1.2-17.7,1.2-4.9,0-9.8-.2-14.7-.9-2.8-.4-5.5-1.6-7.8-3.3-1.9-1.6-3.1-3.9-3.5-6.4-.5-2.7-.3-6.9.4-12.5.3-3.2.9-6.5,1.7-9.6.5-2,1.4-3.9,2.5-5.6,2.2-3.5,5.7-5.8,10.5-6.9,4-.9,10.3-1.3,18.7-1.3s6.8,0,9.4,0c2,0,4.1.3,6.1.6,5.2.9,8.6,2.9,10.3,5.9s2,8.4,1,15.7l-.7,4.4h-43.3c-.3,1.6-.3,3.2-.2,4.9.2,1,.7,1.9,1.5,2.5,1.5,1.2,5.1,1.8,10.9,1.8,2.8,0,5.5,0,8.3-.5,1.5,0,2.9-.6,4.1-1.4.5-.8,1-1.8,1.3-2.8ZM624.5,83.1c.2-1.2.3-2.4,0-3.6,0-.6-.3-1.3-.7-1.7-1.2-1.5-5-2.2-11.2-2.2s-9.3.5-11.2,1.4c-1,.5-1.8,1.3-2.4,2.3-.7,1.2-1.1,2.5-1.2,3.8h26.6Z"/>
    <polygon class="st1" points="648.7 66.4 667.6 66.4 677.2 97.9 695 66.4 713.9 66.4 686.2 110.7 664.8 110.7 648.7 66.4"/>
    <path class="st1" d="M730.8,49.8c1.8,0,3.5,0,5.3.3.8,0,1.5.3,2.1.9.2.3.4.6.5,1,0,.2,0,.5,0,.7v1c0,1.2-.2,2.3-.4,3.5-.2,1.4-.5,2.7-.9,4-.2.8-.6,1.4-1.2,2-.6.5-1.4.8-2.2.9-1.6.3-3.2.3-4.9.3h-5.2c-.3,0-.7,0-1,0-.6,0-1.1-.2-1.7-.4-.4,0-.8-.4-1-.7-.4-.6-.6-1.2-.6-1.9,0-1.4.2-2.8.5-4.2.2-1.7.6-3.3,1.2-4.9.5-1.2,1.7-1.9,2.9-2,.8-.2,1.7-.3,2.6-.3,1,0,2.3,0,3.9,0ZM729.5,51.3c-2,0-3.4,0-4.2,0-.6,0-1.3.4-1.8.7-.4.4-.7.9-.9,1.5-.3,1.1-.5,2.2-.7,3.3-.2,1.2-.4,2.4-.4,3.6,0,.5,0,1,.3,1.4.2.3.4.4.7.5.3,0,.6,0,.8.2.3,0,.5,0,.8,0h4.3c0,0,2.2,0,2.2,0,.7,0,1.3,0,2,0s.9,0,1.3-.2c.4,0,.8-.2,1.1-.5s.5-.6.7-1c.4-1.3.7-2.7.9-4.1.2-1.3.3-2.7.3-4s-.2-.7-.4-.9c-.3-.3-.6-.5-1-.5-.2,0-.5,0-.7,0h-5.3ZM723,61.3l1.3-8.5h9.5c.3,0,.6,0,.9.3.3.2.5.5.6.8,0,.5,0,1.1,0,1.6,0,.7-.2,1.3-.5,1.8-.4.4-.9.6-1.4.6.7,0,1,.3,1.2.5,0,.6,0,1.3,0,1.9v.9h-3.1v-.6c.2-.7.2-1.2,0-1.3,0,0,0-.2-.3-.2h-4.9l-.3,2.1h-3.1ZM726.6,56.9h3.7c.5,0,1,0,1.5,0,.2,0,.3-.4.4-.8s0-.7,0-.8c-.5,0-1,0-1.5,0h-3.7l-.3,1.8Z"/>
    <polygon class="st0" points="40.9 60.2 35 82.7 12.7 96.1 0 87.8 8.6 67.3 29.8 55 40.9 60.2"/>
    <polygon class="st0" points="79.2 18.6 75.1 37.1 50.9 50.1 39.2 44.7 43.3 29 63.1 15.8 79.2 18.6"/>
    <polygon class="st0" points="111.9 50.9 108.3 76.8 136.3 88.5 174.4 70.6 174.9 40.2 145.4 33.8 111.9 50.9"/>
    <polygon class="st0" points="90.2 16.3 86.5 35 106.9 42.5 137.5 23.9 138.4 4.1 118 0 90.2 16.3"/>
    <polygon class="st0" points="64.4 105.9 58.4 135.2 83 155.9 121.8 138.8 126.2 101.1 99.7 90 64.4 105.9"/>
    <polygon class="st0" points="47.1 132.7 19 146.7 2.9 131.8 13 107 37.9 93.9 53.2 104.9 47.1 132.7"/>
    <polygon class="st0" points="60.8 65.8 59.1 72.2 52.8 75.9 49.3 73.6 51.7 67.9 57.6 64.4 60.8 65.8"/>
    <polygon class="st0" points="71.6 54.1 70.4 59.3 63.6 63 60.3 61.5 61.5 57 67 53.3 71.6 54.1"/>
    <polygon class="st0" points="80.8 63.2 79.8 70.5 87.7 73.8 98.4 68.7 98.6 60.2 90.3 58.4 80.8 63.2"/>
    <polygon class="st0" points="74.7 53.4 73.7 58.7 79.4 60.8 88 55.6 88.3 50 82.5 48.8 74.7 53.4"/>
    <polygon class="st0" points="67.4 78.7 65.7 87 72.6 92.8 83.6 88 84.8 77.3 77.4 74.2 67.4 78.7"/>
    <polygon class="st0" points="62.5 86.3 54.6 90.2 50.1 86 52.9 79 60 75.3 64.2 78.4 62.5 86.3"/>
  </g>
</svg>